<mxfile host="app.diagrams.net" modified="2022-09-02T08:11:47.019Z" agent="5.0 (Macintosh)" etag="tkerNpuM1GKaxQUU8XaP" version="20.2.8" type="github">
  <diagram id="6a731a19-8d31-9384-78a2-239565b7b9f0" name="Page-1">
    <mxGraphModel dx="382" dy="853" grid="1" gridSize="10" guides="1" tooltips="1" connect="1" arrows="1" fold="1" page="1" pageScale="1" pageWidth="1169" pageHeight="827" background="none" math="0" shadow="0">
      <root>
        <mxCell id="0" />
        <mxCell id="1" parent="0" />
        <mxCell id="RthrJiaiQP3qlFU8vqny-55" style="edgeStyle=orthogonalEdgeStyle;rounded=0;orthogonalLoop=1;jettySize=auto;html=1;" edge="1" parent="1" source="RthrJiaiQP3qlFU8vqny-56" target="RthrJiaiQP3qlFU8vqny-58">
          <mxGeometry relative="1" as="geometry" />
        </mxCell>
        <mxCell id="RthrJiaiQP3qlFU8vqny-56" value="start" style="shape=mxgraph.flowchart.terminator;strokeWidth=2;gradientColor=none;gradientDirection=north;fontStyle=0;html=1;" vertex="1" parent="1">
          <mxGeometry x="1384.75" y="190" width="120" height="30" as="geometry" />
        </mxCell>
        <mxCell id="RthrJiaiQP3qlFU8vqny-57" style="edgeStyle=orthogonalEdgeStyle;rounded=0;orthogonalLoop=1;jettySize=auto;html=1;entryX=0.5;entryY=0;entryDx=0;entryDy=0;entryPerimeter=0;" edge="1" parent="1" source="RthrJiaiQP3qlFU8vqny-58" target="RthrJiaiQP3qlFU8vqny-68">
          <mxGeometry relative="1" as="geometry">
            <mxPoint x="1444.7454545454545" y="240.75" as="targetPoint" />
          </mxGeometry>
        </mxCell>
        <mxCell id="RthrJiaiQP3qlFU8vqny-58" value="Input list of &lt;br&gt;public event type, &lt;br&gt;event id, status" style="shape=mxgraph.flowchart.data;strokeWidth=2;gradientColor=none;gradientDirection=north;fontStyle=0;html=1;" vertex="1" parent="1">
          <mxGeometry x="1364.75" y="250" width="159" height="80" as="geometry" />
        </mxCell>
        <mxCell id="RthrJiaiQP3qlFU8vqny-59" value="end" style="shape=mxgraph.flowchart.terminator;strokeWidth=2;gradientColor=none;gradientDirection=north;fontStyle=0;html=1;" vertex="1" parent="1">
          <mxGeometry x="1384.75" y="930" width="120" height="30" as="geometry" />
        </mxCell>
        <mxCell id="RthrJiaiQP3qlFU8vqny-67" style="edgeStyle=orthogonalEdgeStyle;rounded=0;orthogonalLoop=1;jettySize=auto;html=1;" edge="1" parent="1" source="RthrJiaiQP3qlFU8vqny-68" target="RthrJiaiQP3qlFU8vqny-70">
          <mxGeometry relative="1" as="geometry" />
        </mxCell>
        <mxCell id="RthrJiaiQP3qlFU8vqny-68" value="Combine documentId&lt;br&gt;of public event type, &lt;br&gt;event id, status" style="shape=mxgraph.flowchart.data;strokeWidth=2;gradientColor=none;gradientDirection=north;fontStyle=0;html=1;" vertex="1" parent="1">
          <mxGeometry x="1365.25" y="363" width="159" height="80" as="geometry" />
        </mxCell>
        <mxCell id="RthrJiaiQP3qlFU8vqny-69" style="edgeStyle=orthogonalEdgeStyle;rounded=0;orthogonalLoop=1;jettySize=auto;html=1;" edge="1" parent="1" source="RthrJiaiQP3qlFU8vqny-70" target="RthrJiaiQP3qlFU8vqny-72">
          <mxGeometry relative="1" as="geometry" />
        </mxCell>
        <mxCell id="RthrJiaiQP3qlFU8vqny-70" value="get S3 locations &lt;br&gt;in the document Id&lt;br&gt;list&lt;br&gt;" style="shape=mxgraph.flowchart.data;strokeWidth=2;gradientColor=none;gradientDirection=north;fontStyle=0;html=1;" vertex="1" parent="1">
          <mxGeometry x="1365.25" y="480" width="159" height="80" as="geometry" />
        </mxCell>
        <mxCell id="RthrJiaiQP3qlFU8vqny-71" style="edgeStyle=orthogonalEdgeStyle;rounded=0;orthogonalLoop=1;jettySize=auto;html=1;" edge="1" parent="1" source="RthrJiaiQP3qlFU8vqny-72" target="RthrJiaiQP3qlFU8vqny-74">
          <mxGeometry relative="1" as="geometry" />
        </mxCell>
        <mxCell id="RthrJiaiQP3qlFU8vqny-72" value="Retrieve CEIs &lt;br&gt;from S3 by S3 &lt;br&gt;locations" style="shape=mxgraph.flowchart.data;strokeWidth=2;gradientColor=none;gradientDirection=north;fontStyle=0;html=1;" vertex="1" parent="1">
          <mxGeometry x="1364.75" y="600" width="159" height="80" as="geometry" />
        </mxCell>
        <mxCell id="RthrJiaiQP3qlFU8vqny-73" style="edgeStyle=orthogonalEdgeStyle;rounded=0;orthogonalLoop=1;jettySize=auto;html=1;" edge="1" parent="1" source="RthrJiaiQP3qlFU8vqny-74" target="RthrJiaiQP3qlFU8vqny-76">
          <mxGeometry relative="1" as="geometry" />
        </mxCell>
        <mxCell id="RthrJiaiQP3qlFU8vqny-74" value="Covert CEIs to &lt;br&gt;response item list" style="shape=mxgraph.flowchart.data;strokeWidth=2;gradientColor=none;gradientDirection=north;fontStyle=0;html=1;" vertex="1" parent="1">
          <mxGeometry x="1365.25" y="710" width="159" height="80" as="geometry" />
        </mxCell>
        <mxCell id="RthrJiaiQP3qlFU8vqny-75" style="edgeStyle=orthogonalEdgeStyle;rounded=0;orthogonalLoop=1;jettySize=auto;html=1;entryX=0.5;entryY=0;entryDx=0;entryDy=0;entryPerimeter=0;" edge="1" parent="1" source="RthrJiaiQP3qlFU8vqny-76" target="RthrJiaiQP3qlFU8vqny-59">
          <mxGeometry relative="1" as="geometry" />
        </mxCell>
        <mxCell id="RthrJiaiQP3qlFU8vqny-76" value="Build response and &lt;br&gt;return" style="shape=mxgraph.flowchart.data;strokeWidth=2;gradientColor=none;gradientDirection=north;fontStyle=0;html=1;" vertex="1" parent="1">
          <mxGeometry x="1365.25" y="820" width="159" height="70" as="geometry" />
        </mxCell>
      </root>
    </mxGraphModel>
  </diagram>
</mxfile>
